<svg xmlns="http://www.w3.org/2000/svg" width="1024" height="1024" viewBox="0 0 1024 1024" role="img" aria-labelledby="title desc">
  <title id="title">SnapMark App Icon</title>
  <desc id="desc">Dark premium rounded-square icon with a diagonal mark arrow and crop-frame corners.</desc>
  <defs>
    <linearGradient id="bgGrad" x1="0%" y1="0%" x2="100%" y2="100%">
      <stop offset="0%" stop-color="#0E1015"/>
      <stop offset="58%" stop-color="#161C27"/>
      <stop offset="100%" stop-color="#0F1623"/>
    </linearGradient>
    <radialGradient id="glowA" cx="22%" cy="18%" r="60%">
      <stop offset="0%" stop-color="#66A3FF" stop-opacity="0.45"/>
      <stop offset="100%" stop-color="#66A3FF" stop-opacity="0"/>
    </radialGradient>
    <radialGradient id="glowB" cx="78%" cy="82%" r="50%">
      <stop offset="0%" stop-color="#36D1A5" stop-opacity="0.30"/>
      <stop offset="100%" stop-color="#36D1A5" stop-opacity="0"/>
    </radialGradient>
    <linearGradient id="markGrad" x1="24%" y1="78%" x2="79%" y2="26%">
      <stop offset="0%" stop-color="#2EC88F"/>
      <stop offset="100%" stop-color="#66A3FF"/>
    </linearGradient>
  </defs>

  <rect x="52" y="52" width="920" height="920" rx="228" fill="url(#bgGrad)"/>
  <rect x="52" y="52" width="920" height="920" rx="228" fill="url(#glowA)"/>
  <rect x="52" y="52" width="920" height="920" rx="228" fill="url(#glowB)"/>
  <rect x="52" y="52" width="920" height="920" rx="228" fill="none" stroke="rgba(255,255,255,0.12)" stroke-width="8"/>

  <!-- Crop-frame corners -->
  <path d="M268 328V248H348" fill="none" stroke="rgba(255,255,255,0.74)" stroke-width="28" stroke-linecap="round" stroke-linejoin="round"/>
  <path d="M756 328V248H676" fill="none" stroke="rgba(255,255,255,0.74)" stroke-width="28" stroke-linecap="round" stroke-linejoin="round"/>
  <path d="M268 696V776H348" fill="none" stroke="rgba(255,255,255,0.74)" stroke-width="28" stroke-linecap="round" stroke-linejoin="round"/>
  <path d="M756 696V776H676" fill="none" stroke="rgba(255,255,255,0.74)" stroke-width="28" stroke-linecap="round" stroke-linejoin="round"/>

  <!-- Main mark arrow -->
  <path d="M316 692L648 494L744 392" fill="none" stroke="url(#markGrad)" stroke-width="54" stroke-linecap="round" stroke-linejoin="round"/>
  <path d="M744 392L670 402L680 328Z" fill="url(#markGrad)"/>

  <!-- Tail notch -->
  <circle cx="302" cy="704" r="22" fill="#0C1118" stroke="rgba(255,255,255,0.45)" stroke-width="6"/>
  <circle cx="302" cy="704" r="8" fill="url(#markGrad)"/>
</svg>
